<svg viewBox="0 0 24 24" fill="none" xmlns="http://www.w3.org/2000/svg">
  <path d="M3.89 15.672L6.255.461A.542.542 0 0 1 7.27.288L12.25 4.11a.37.37 0 0 0 .5 0L17.23.288a.542.542 0 0 1 1.015.173L20.11 15.672a.543.543 0 0 1-.207.543L12.25 23.712a.37.37 0 0 1-.5 0L4.097 16.215a.543.543 0 0 1-.207-.543z" fill="#DD2C00"/>
  <path d="M12.25 4.11L6.255.288a.542.542 0 0 0-1.015.173L3.89 15.672a.543.543 0 0 0 .207.543L12.25 23.712a.37.37 0 0 0 .5 0L20.11 16.215a.543.543 0 0 0 .207-.543L18.77.461a.542.542 0 0 0-1.015-.173L12.25 4.11z" fill="#FFA000"/>
  <path d="M12.25 4.11L6.255.288a.542.542 0 0 0-1.015.173L3.89 15.672a.543.543 0 0 0 .207.543L12.25 23.712a.37.37 0 0 0 .5 0L20.11 16.215a.543.543 0 0 0 .207-.543L18.77.461a.542.542 0 0 0-1.015-.173L12.25 4.11z" fill="#FFC107"/>
</svg>