<svg viewBox="0 0 24 24" fill="none" xmlns="http://www.w3.org/2000/svg">
  <path d="M11.572 0c-.176 0-.31.001-.358.007a6.023 6.023 0 0 0-.633.07c-.315.058-.611.143-.889.252a5.917 5.917 0 0 0-.713.323c-.2.102-.384.22-.552.353a5.92 5.92 0 0 0-.463.43c-.12.13-.222.27-.307.418a5.85 5.85 0 0 0-.205.38c-.054.12-.1.243-.137.37a5.98 5.98 0 0 0-.075.4c-.017.12-.026.242-.026.365V24h2.143V2.143c0-.1.01-.2.03-.295.02-.1.05-.195.09-.285.04-.1.09-.19.15-.275.06-.09.13-.17.21-.245.08-.08.17-.145.27-.2.1-.06.21-.105.325-.14.115-.03.235-.05.36-.06.125-.005.255-.005.39-.005h7.89l-2.8 3.2h-2.09v16.8h2.143V8.143L24 2.143V0H11.572z" fill="#000000"/>
</svg>
