<svg viewBox="0 0 24 24" fill="none" xmlns="http://www.w3.org/2000/svg">
  <path d="M14.25.18l.9.2.73.26.59.3.45.32.34.34.25.34.16.33.1.3.04.26.01.2-.01.13V8.5l-.05.63-.13.55-.21.46-.26.38-.3.31-.33.25-.35.19-.35.14-.33.1-.3.07-.26.04-.21.02H8.77l-.69.05-.59.14-.5.22-.41.27-.33.32-.27.35-.2.36-.15.37-.1.35-.07.32-.04.27-.02.21v3.06H3.17l-.21-.03-.28-.07-.32-.12-.35-.18-.36-.26-.36-.35-.35-.45-.32-.56-.28-.68-.22-.8-.15-.92-.08-1.03v-.57l.02-.45.07-.42.13-.38.18-.35.24-.32.28-.28.32-.25.35-.21.36-.18.37-.14.36-.11.34-.07.31-.04.26-.02.21-.01h5.39V6.77H8.77l-.01-3.24-.02-.28.05-.25.1-.22.15-.19.2-.16.24-.13.27-.1.29-.07.3-.04.28-.02.26-.01h5.39l.2.01.26.02.3.04.32.07.33.1.33.13.32.16.3.19.27.22.23.25.18.28.13.31.07.33.02.35v.57l-.01.2zm-5.4 1.36a.94.94 0 0 0-.95.92.94.94 0 0 0 .95.93.94.94 0 0 0 .95-.93.94.94 0 0 0-.95-.92zm5.34 8.1v2.75l-.01.2-.02.26-.05.3-.08.33-.12.35-.16.36-.2.36-.25.35-.29.33-.33.3-.37.26-.4.22-.43.17-.45.12-.47.07-.47.04-.46.01H8.77l-.2-.01-.26-.02-.3-.04-.32-.07-.33-.1-.33-.13-.32-.16-.3-.19-.27-.22-.23-.25-.18-.28-.13-.31-.07-.33-.02-.35v-5.7l.01-.13.04-.26.1-.3.16-.33.25-.34.34-.34.45-.32.59-.3.73-.26.9-.2.2-.02h5.38l.21.01.26.02.3.04.32.07.33.1.33.13.32.16.3.19.27.22.23.25.18.28.13.31.07.33.02.35v.57zm-5.4 1.36a.94.94 0 0 0-.95.92.94.94 0 0 0 .95.93.94.94 0 0 0 .95-.93.94.94 0 0 0-.95-.92z" fill="#3776AB"/>
</svg>